<?xml version="1.0" encoding="UTF-8"?>
<!DOCTYPE svg PUBLIC "-//W3C//DTD SVG 1.1//EN" "http://www.w3.org/Graphics/SVG/1.1/DTD/svg11.dtd">
<!-- Creator: CorelDRAW X7 -->
<svg xmlns="http://www.w3.org/2000/svg" xml:space="preserve" width="1.66666in" height="1.66666in" version="1.1" style="shape-rendering:geometricPrecision; text-rendering:geometricPrecision; image-rendering:optimizeQuality; fill-rule:evenodd; clip-rule:evenodd"
     viewBox="0 0 1667 1667"
     xmlns:xlink="http://www.w3.org/1999/xlink"
     enable-background="new 0 0 150 150">
 <defs>
  <style type="text/css">
   <![CDATA[
    .str0 {stroke:#9092C0;stroke-width:10.4173}
    .fil1 {fill:none}
    .fil0 {fill:#9092C0}
    .fil2 {fill:#D0D2DF}
   ]]>
  </style>
 </defs>
    <g id="Layer_x0020_1">
  <metadata id="CorelCorpID_0Corel-Layer"/>
        <circle id="dot" class="fil0 str0" cx="687" cy="1549" r="16"/>
        <path class="fil1 str0" d="M692 1554c157,22 309,-8 440,-76 201,-106 349,-303 383,-545 56,-398 -221,-767 -620,-823 -399,-56 -671,246 -680,307"/>
        <path class="fil2" d="M808 1061c0,-30 49,-38 49,3 0,28 -49,29 -49,-3zm-10 -481l71 0c5,0 5,4 5,10l-78 0c-6,0 0,1 -5,-1 1,-5 1,-9 7,-9zm181 374l-8 1 -4 29 -10 0 0 23 -250 0 0 -371 250 0 0 17 22 0c0,-26 4,-66 -6,-83 -17,-26 -40,-23 -67,-23 -36,0 -151,-1 -177,1 -24,1 -42,20 -42,47 1,64 -1,477 1,489 2,11 10,21 17,27 16,12 55,8 81,8 30,0 60,0 89,0 26,0 67,5 83,-6 22,-16 21,-32 21,-68 0,-30 0,-61 0,-91z"/>
        <rect class="fil2" x="957" y="653" width="21.4055" height="359.291"/>
 </g>
</svg>
